# xmcd
#
# Track frame offsets:
#	150
#	19183
#	38070
#	52108
#	68468
#	84734
#	102096
#	119397
#	134868
#	150285
#	167142
#
# Disc length: 2407 seconds
#
# Revision: 1
# Processed by: cddbd v1.4PL0 Copyright (c) Steve Scherf et al.
# Submitted via: audiograbber 1.82.02
#
DISCID=8d09650b
DTITLE=Trina - Seated in Heaven
DYEAR=1900
DGENRE=
TTITLE0=Seated in Heaven
TTITLE1=The Cross
TTITLE2=Treasure
TTITLE3=Truth Lasts
TTITLE4=All The Way
TTITLE5=Near
TTITLE6=Gods Own Son
TTITLE7=Lifts Me Up
TTITLE8=Come and Drink
TTITLE9=Faithful
TTITLE10=For Opa
EXTD=
EXTT0=
EXTT1=
EXTT2=
EXTT3=
EXTT4=
EXTT5=
EXTT6=
EXTT7=
EXTT8=
EXTT9=
EXTT10=
PLAYORDER=
